<svg width="24" height="24" viewBox="0 0 24 24" fill="none" xmlns="http://www.w3.org/2000/svg">
<mask id="mask0_2236_7224" style="mask-type:alpha" maskUnits="userSpaceOnUse" x="0" y="0" width="24" height="24">
<rect width="24" height="24" fill="#D9D9D9"/>
</mask>
<g mask="url(#mask0_2236_7224)">
<path d="M15.0211 12.6022C15.0211 12.7094 15.0019 12.8091 14.9634 12.9013C14.925 12.9934 14.8673 13.078 14.7903 13.1549L10.1546 17.7907C10.0105 17.9348 9.85448 18.0043 9.68652 17.9991C9.51859 17.994 9.36219 17.919 9.21732 17.7741C9.07244 17.6293 9 17.4745 9 17.3097C9 17.145 9.07244 16.9902 9.21732 16.8453L13.4904 12.5972L9.21732 8.32412C9.07886 8.18567 9.01219 8.03247 9.01732 7.86452C9.02244 7.69659 9.09744 7.54019 9.24232 7.39532C9.38719 7.25044 9.54199 7.178 9.70672 7.178C9.87146 7.178 10.0286 7.25326 10.1782 7.40378L14.7903 12.0395C14.8673 12.1231 14.925 12.211 14.9634 12.3032C15.0019 12.3954 15.0211 12.495 15.0211 12.6022Z" fill="black"/>
</g>
</svg>
